<svg viewBox="0 0 203.08 181.55" xmlns="http://www.w3.org/2000/svg"><g fill="#fff"><path d="m22.91 165.9h-8.75v-38.2h-14.16v-7.13h37.07v7.13h-14.16z"/><path d="m60.67 162.34c-1.07.93-2.21 1.65-3.43 2.17s-2.37.92-3.46 1.2-2.03.45-2.82.5-1.28.08-1.48.08c-5.18 0-9.01-1.25-11.49-3.76-2.49-2.51-3.73-6.08-3.73-10.73v-18.83h8.75v16.89c0 2.01.23 3.64.68 4.88.46 1.24 1.08 2.21 1.86 2.9.79.7 1.67 1.16 2.66 1.4s2.02.35 3.08.35 2.08-.23 3.2-.7 2.13-1.1 3.04-1.9 1.66-1.73 2.25-2.79c.58-1.06.88-2.16.88-3.29v-17.74h8.75v32.93h-8.45l-.3-3.56z"/><path d="m98.34 132.58c2.49 0 4.74.39 6.77 1.16s3.77 1.89 5.21 3.33c1.45 1.45 2.56 3.19 3.35 5.23s1.18 4.33 1.18 6.86c0 2.69-.46 5.09-1.37 7.21s-2.12 3.91-3.62 5.39c-1.5 1.47-3.21 2.6-5.14 3.37s-3.88 1.16-5.86 1.16c-.81 0-1.74-.03-2.78-.08s-2.13-.21-3.27-.47-2.27-.66-3.39-1.2-2.13-1.33-3.04-2.36l-.53 3.72h-8.22v-45.33h8.75v15.96c1.07-.93 2.14-1.65 3.23-2.17s2.16-.92 3.2-1.2 2.03-.45 2.97-.5 1.79-.08 2.55-.08zm7.84 16.04c0-1.86-.33-3.36-.99-4.49-.66-1.14-1.48-2.04-2.47-2.71s-2.07-1.12-3.24-1.36c-1.17-.23-2.28-.35-3.35-.35s-2.26.19-3.43.58-2.22.94-3.16 1.67c-.94.72-1.7 1.6-2.28 2.64-.58 1.03-.88 2.22-.88 3.56v2.94c0 1.19.28 2.29.84 3.29.56 1.01 1.32 1.89 2.28 2.63.96.75 2.08 1.33 3.35 1.74s2.61.62 4.03.62c1.12 0 2.23-.21 3.35-.62s2.11-1.05 2.97-1.9 1.57-1.92 2.13-3.22c.56-1.29.84-2.79.84-4.49v-.54z"/><path d="m121.63 120.5h8.75v8.76h-8.75zm0 12.47h8.75v32.93h-8.75z"/><path d="m151.85 132.97h8.98v7.52h-8.98v25.41h-8.75v-25.41h-6.7v-7.52h6.7v-1.86c0-4.65.84-8.04 2.51-10.19 1.67-2.14 4.49-3.22 8.45-3.22.86 0 1.94.05 3.23.16 1.29.1 2.47.26 3.54.46v6.9c-.15-.05-.41-.09-.76-.12-.36-.03-.72-.05-1.1-.08s-.74-.04-1.07-.04h-.65c-1.83 0-3.18.38-4.07 1.12-.89.75-1.33 2.13-1.33 4.15v2.71z"/><path d="m166.92 173.73c1.01.41 1.89.67 2.63.78.74.1 1.41.15 2.02.15 2.13 0 3.58-.27 4.34-.81s1.14-1.54 1.14-2.98c0-.36-.06-.83-.19-1.4s-.27-1.14-.42-1.7c-.15-.57-.3-1.08-.46-1.55-.15-.47-.25-.78-.3-.93l-11.57-32.31h9.51l9.97 29.29 9.9-29.29h9.59l-12.71 35.18c-1.22 3.36-2.56 5.94-4.03 7.75s-2.93 3.14-4.38 3.99-2.8 1.34-4.07 1.47-2.33.19-3.2.19c-1.57 0-2.87-.05-3.88-.16-1.02-.1-1.82-.23-2.4-.39s-1.08-.34-1.48-.54v-6.74z"/></g><path d="m158.92 61.85c-10.77-2.67-25.31-7.46-40.99-16.43-16.24-9.29-28.04-19.81-35.9-27.96v88.78c8.12-8.15 19.95-18.36 35.9-27.51 15.58-8.94 30.02-13.95 40.99-16.87z" fill="none" stroke="#fff" stroke-linecap="round" stroke-linejoin="round" stroke-width="4.83"/><path d="m52.7 52.1c7.8-4.9 17.03-7.74 26.91-7.74.8 0 1.62.02 2.42.05 19.59.93 36.3 13 43.94 29.98" fill="none" stroke="#fff" stroke-linecap="round" stroke-linejoin="round" stroke-width="4.83"/><path d="m57.84 60.26c6.32-3.95 13.78-6.23 21.77-6.23.82 0 1.62.03 2.42.08 15.95.93 29.44 10.92 35.43 24.9" fill="none" stroke="#fff" stroke-linecap="round" stroke-linejoin="round" stroke-width="4.83"/><path d="m63 68.44c4.81-3.01 10.51-4.75 16.61-4.75.82 0 1.62.04 2.42.11 12.44.95 22.87 9.13 27.08 20.35" fill="none" stroke="#fff" stroke-linecap="round" stroke-linejoin="round" stroke-width="4.83"/><path d="m114.74 20.55c3.46-1 6.61-1.92 9.76-2.84.56-.16 1.11-.38 1.67-.54 3.1-.87 5.04-2.89 5.95-5.96 1.08-3.63 2.18-7.25 3.38-11.22.83 2.81 1.55 5.32 2.32 7.81.5 1.61 1.04 3.2 1.62 4.78.72 1.96 2.08 3.39 4.04 4.04 3.6 1.2 7.24 2.25 10.87 3.37.52.16 1.04.32 1.91.59-3.08.89-5.84 1.67-8.58 2.49-1.42.43-2.84.88-4.22 1.43-1.92.76-3.36 2.08-4.01 4.07-1.21 3.68-2.34 7.38-3.5 11.07-.13.4-.23.8-.45 1.54-.62-2.11-1.15-3.93-1.7-5.75-.65-2.13-1.3-4.27-2.01-6.38-.82-2.44-2.5-4.06-4.96-4.82-3.58-1.11-7.18-2.19-10.77-3.28-.34-.1-.67-.21-1.31-.41z" fill="#3e4ea0"/><path d="m44.16 94.62c2.28-.66 4.36-1.26 6.43-1.87.37-.11.73-.25 1.1-.36 2.05-.57 3.32-1.91 3.92-3.93.71-2.39 1.44-4.78 2.23-7.39.55 1.85 1.02 3.5 1.53 5.15.33 1.06.69 2.11 1.07 3.15.47 1.29 1.37 2.23 2.66 2.66 2.37.79 4.77 1.48 7.16 2.22.34.1.68.21 1.26.39-2.03.59-3.85 1.1-5.65 1.64-.94.28-1.87.58-2.78.94-1.26.5-2.21 1.37-2.65 2.68-.8 2.42-1.54 4.86-2.31 7.3-.08.26-.15.53-.3 1.01-.41-1.39-.76-2.59-1.12-3.79-.43-1.41-.86-2.81-1.32-4.2-.54-1.61-1.65-2.67-3.27-3.18-2.36-.73-4.73-1.44-7.1-2.16-.22-.07-.44-.14-.86-.27z" fill="#3e4da0"/></svg>