<svg viewBox="0 0 142.37 121.17" xmlns="http://www.w3.org/2000/svg"><g fill="#fff"><path d="m16.72 88.32v25.43h-7.02v-25.43h-9.7v-6.47h26.44v6.47h-9.71z"/><path d="m44.08 113.75v-3.46c-1.6 2.05-3.64 3.92-7.16 3.92-5.24 0-8.29-3.47-8.29-9.07v-15.82h6.93v13.63c0 3.28 1.55 4.97 4.19 4.97s4.33-1.69 4.33-4.97v-13.63h6.93v24.43h-6.94z"/><path d="m71.74 114.21c-3.69 0-5.97-1.69-7.61-3.64v3.19h-6.93v-33.28h6.93v12.35c1.69-2.28 4.01-3.97 7.61-3.97 5.7 0 11.12 4.46 11.12 12.62v.09c0 8.16-5.33 12.62-11.12 12.62zm4.19-12.71c0-4.05-2.73-6.74-5.97-6.74s-5.92 2.69-5.92 6.74v.09c0 4.05 2.69 6.74 5.92 6.74s5.97-2.65 5.97-6.74z"/><path d="m88.1 86.63v-6.16h7.29v6.15h-7.29zm.18 27.13v-24.44h6.93v24.43h-6.93z"/><path d="m112.26 86c-1.6 0-2.51.82-2.51 2.65v.96h5.61v5.65h-5.51v18.5h-6.93v-18.52h-2.87v-5.7h2.87v-1.55c0-5.38 2.69-7.84 7.57-7.84 2.18 0 3.64.27 4.92.68v5.74c-1-.37-1.96-.59-3.15-.59z"/><path d="m132.99 114.34c-1.87 4.97-3.87 6.83-8.02 6.83-2.51 0-4.38-.64-6.15-1.69l2.32-5.01c.91.55 2.05.95 2.96.95 1.19 0 1.83-.37 2.41-1.6l-9.57-24.52h7.34l5.56 16.63 5.33-16.63h7.2l-9.39 25.02h.01z"/></g><path d="m113.17 36.96-11.74 6.78-2.21 1.27-.11.07-2.09 1.2-5.06 2.92-.07.04-2.23 1.29-5.16 2.98-.03.02-2.16 1.26-27.67 15.97c-1.13.65-2.55-.16-2.55-1.47v-67.59c0-1.31 1.42-2.12 2.55-1.47l58.54 33.8c1.14.65 1.14 2.28 0 2.94h-.01z" fill="#56ba5d"/><path d="m101.42 43.74-2.21 1.27-.11.07-2.09 1.2c-9.38-14.74-26.06-23.36-43.56-22.51-.42 0-.75.03-1.1.06-.08 0-.18.02-.26.03-7.62.58-14.76 2.85-21.29 6.78l-2.47-4.46c7.18-4.27 15.31-6.82 23.58-7.41.06 0 .12 0 .18-.02.36-.03.76-.06 1.18-.07 19.29-.94 37.75 8.63 48.1 24.96l.06.09z" fill="#fff"/><path d="m94.11 47.96-2.15 1.25-.07.04-2.23 1.29c-7.85-12.11-21.7-19.11-36.19-18.27-.42.02-.8.04-1.17.08-.07 0-.14 0-.21.03-6.12.55-11.91 2.47-17.2 5.7l-2.46-4.46c5.99-3.61 12.52-5.74 19.44-6.34.08 0 .14 0 .22-.02.38-.03.76-.06 1.14-.08 16.31-.94 32.06 7.06 40.89 20.78z" fill="#fff"/><path d="m86.76 52.21-2.26 1.31-.03.02-2.16 1.26c-6.36-9.5-17.37-14.88-28.79-14.04-.38.03-.72.06-1.07.09h-.1c-.08.02-.17.03-.25.04-4.56.54-8.89 2.04-12.85 4.48-.08.05-.17.1-.25.16l-2.47-4.47s.03-.03.05-.03c4.68-2.88 9.81-4.63 15.24-5.23l.12-.02s.11 0 .16-.02c.36-.03.72-.06 1.09-.08 13.28-.97 26.23 5.43 33.59 16.53z" fill="#fff"/></svg>