<?xml version="1.0" encoding="UTF-8"?>
<svg id="Layer_2" data-name="Layer 2" xmlns="http://www.w3.org/2000/svg" viewBox="0 0 348.02 348.02">
  <defs>
    <style>
      .cls-1 {
        fill: #fff;
      }

      .cls-2 {
        fill: #55ba5d;
      }
    </style>
  </defs>
  <g id="Layer_1-2" data-name="Layer 1">
    <rect width="348.02" height="348.02" rx="15.15" ry="15.15"/>
    <g>
      <path class="cls-2" d="M258.56,176.97l-23.64,13.65-4.44,2.56h-.02l-.22,.14-4.2,2.43-10.18,5.88-.14,.09-4.49,2.6-10.38,6-.07,.03-4.36,2.53-55.72,32.16c-2.27,1.32-5.12-.32-5.12-2.95V105.96c0-2.63,2.85-4.27,5.12-2.95l117.86,68.05c2.29,1.32,2.29,4.59,0,5.91Z"/>
      <path class="cls-1" d="M234.92,190.61l-4.44,2.56h-.02l-.22,.14-4.2,2.43c-18.89-29.67-52.47-47.02-87.71-45.31-.84,.02-1.52,.05-2.22,.12-.17,.02-.36,.03-.53,.05-15.34,1.16-29.72,5.74-42.87,13.65l-4.95-8.98c14.45-8.59,30.83-13.73,47.47-14.91,.12-.02,.24-.02,.36-.03,.72-.07,1.52-.12,2.37-.14,38.84-1.9,76.01,17.37,96.85,50.25l.12,.19Z"/>
      <path class="cls-1" d="M220.19,199.1l-4.34,2.51-.14,.09-4.49,2.6c-15.8-24.39-43.69-38.48-72.87-36.77-.85,.03-1.61,.09-2.36,.15-.14,.02-.29,.02-.43,.05-12.32,1.11-23.98,4.97-34.64,11.48l-4.95-8.98c12.06-7.26,25.21-11.56,39.15-12.76,.15-.02,.29-.02,.44-.03,.77-.07,1.54-.12,2.29-.15,32.83-1.9,64.55,14.21,82.33,41.83Z"/>
      <path class="cls-1" d="M205.38,207.66l-4.54,2.63-.07,.03-4.36,2.53c-12.81-19.13-34.96-29.96-57.97-28.27-.77,.05-1.45,.12-2.15,.19l-.2,.02c-.17,.02-.34,.03-.51,.07-9.17,1.09-17.9,4.1-25.88,9.02-.17,.1-.34,.2-.5,.32l-4.97-9s.07-.05,.1-.07c9.43-5.79,19.75-9.33,30.68-10.52l.24-.03c.1-.02,.22-.02,.32-.03,.73-.07,1.45-.12,2.19-.17,26.73-1.95,52.81,10.93,67.62,33.29Z"/>
    </g>
  </g>
</svg>