<?xml version="1.0" encoding="UTF-8"?>
<svg id="Layer_2" data-name="Layer 2" xmlns="http://www.w3.org/2000/svg" viewBox="0 0 202.67 202.67">
  <defs>
    <style>
      .cls-1 {
        fill: #3e4da0;
      }

      .cls-2 {
        fill: none;
        stroke: #fff;
        stroke-linecap: round;
        stroke-linejoin: round;
        stroke-width: 6.36px;
      }
    </style>
  </defs>
  <g id="Layer_1-2" data-name="Layer 1">
    <rect width="202.67" height="202.67" rx="13.77" ry="13.77"/>
    <g>
      <path class="cls-2" d="M171.3,101.34c-14.19-3.52-33.34-9.83-53.99-21.64-21.4-12.23-36.94-26.09-47.28-36.83,0,0,0,0,0,0v116.93s0,0,0,0c10.7-10.73,26.28-24.19,47.29-36.24,20.52-11.77,39.55-18.38,53.99-22.23Z"/>
      <path class="cls-2" d="M31.37,88.5c10.28-6.46,22.44-10.19,35.45-10.19,1.06,0,2.14,.03,3.19,.06h.01c25.81,1.23,47.82,17.12,57.89,39.49"/>
      <path class="cls-2" d="M38.14,99.24c8.32-5.2,18.15-8.21,28.68-8.21,1.08,0,2.14,.04,3.19,.1h.01c21.01,1.22,38.78,14.38,46.67,32.8"/>
      <path class="cls-2" d="M44.94,110.02c6.34-3.97,13.85-6.26,21.88-6.26,1.08,0,2.14,.05,3.19,.14h.01c16.39,1.25,30.13,12.03,35.68,26.81"/>
    </g>
    <path class="cls-1" d="M113.12,50.92c2.53-.73,4.83-1.4,7.13-2.07,.41-.12,.81-.28,1.22-.39,2.27-.64,3.68-2.11,4.35-4.35,.79-2.65,1.59-5.3,2.47-8.19,.61,2.05,1.13,3.88,1.69,5.71,.36,1.17,.76,2.34,1.18,3.49,.53,1.43,1.52,2.48,2.95,2.95,2.63,.88,5.29,1.65,7.94,2.46,.38,.12,.76,.23,1.39,.43-2.25,.65-4.26,1.22-6.26,1.82-1.04,.31-2.07,.65-3.08,1.04-1.4,.55-2.45,1.52-2.93,2.97-.89,2.69-1.71,5.39-2.56,8.09-.09,.29-.17,.59-.33,1.12-.46-1.54-.84-2.87-1.24-4.2-.48-1.56-.95-3.12-1.47-4.66-.6-1.78-1.83-2.96-3.62-3.52-2.62-.81-5.25-1.6-7.87-2.39-.25-.07-.49-.15-.96-.3Z"/>
    <path class="cls-1" d="M27.54,148.48c1.77-.51,3.37-.98,4.98-1.45,.29-.08,.57-.19,.85-.28,1.58-.45,2.57-1.48,3.04-3.04,.55-1.85,1.11-3.7,1.72-5.73,.42,1.43,.79,2.72,1.18,3.99,.25,.82,.53,1.63,.83,2.44,.37,1,1.06,1.73,2.06,2.06,1.84,.61,3.7,1.15,5.55,1.72,.26,.08,.53,.16,.97,.3-1.57,.46-2.98,.85-4.38,1.27-.73,.22-1.45,.45-2.15,.73-.98,.39-1.72,1.06-2.05,2.08-.62,1.88-1.2,3.77-1.79,5.65-.06,.2-.12,.41-.23,.78-.32-1.08-.59-2.01-.87-2.93-.33-1.09-.66-2.18-1.03-3.26-.42-1.25-1.28-2.07-2.53-2.46-1.83-.57-3.67-1.12-5.5-1.67-.17-.05-.34-.11-.67-.21Z"/>
  </g>
</svg>