<svg viewBox="0 0 289.7 70.99" xmlns="http://www.w3.org/2000/svg"><g fill="#fff"><path d="m118.3 19.92v34.68h-9.57v-34.68h-13.24v-8.83h36.06v8.83h-13.24z"/><path d="m155.61 54.6v-4.72c-2.18 2.8-4.97 5.35-9.76 5.35-7.15 0-11.31-4.73-11.31-12.37v-21.58h9.45v18.59c0 4.48 2.11 6.78 5.72 6.78s5.91-2.3 5.91-6.78v-18.59h9.45v33.32h-9.45z"/><path d="m193.34 55.23c-5.04 0-8.14-2.3-10.38-4.97v4.35h-9.45v-45.39h9.45v16.85c2.3-3.11 5.47-5.41 10.38-5.41 7.77 0 15.17 6.09 15.17 17.22v.12c0 11.13-7.27 17.22-15.17 17.22zm5.72-17.34c0-5.53-3.73-9.2-8.14-9.2s-8.08 3.67-8.08 9.2v.12c0 5.53 3.67 9.2 8.08 9.2s8.14-3.61 8.14-9.2z"/><path d="m215.66 17.62v-8.4h9.95v8.39h-9.95zm.25 36.99v-33.33h9.45v33.32h-9.45z"/><path d="m248.61 16.75c-2.18 0-3.42 1.12-3.42 3.61v1.31h7.65v7.71h-7.52v25.24h-9.45v-25.26h-3.92v-7.77h3.92v-2.11c0-7.34 3.67-10.69 10.32-10.69 2.98 0 4.97.37 6.71.93v7.83c-1.37-.5-2.67-.81-4.29-.81z"/><path d="m276.89 55.41c-2.55 6.78-5.28 9.32-10.94 9.32-3.42 0-5.97-.87-8.39-2.3l3.17-6.84c1.24.75 2.8 1.3 4.04 1.3 1.62 0 2.49-.5 3.29-2.18l-13.06-33.45h10.01l7.58 22.69 7.27-22.69h9.82l-12.81 34.13z"/></g><path d="m84.84 36.96-11.74 6.78-2.21 1.27-.11.07-2.09 1.2-5.06 2.92-.07.04-2.23 1.29-5.16 2.98-.03.02-2.16 1.26-27.67 15.97c-1.13.65-2.55-.16-2.55-1.47v-67.59c0-1.31 1.42-2.12 2.55-1.47l58.54 33.8c1.14.65 1.14 2.28 0 2.94z" fill="#55ba5d"/><path d="m73.09 43.74-2.21 1.27-.11.07-2.09 1.2c-9.38-14.74-26.06-23.36-43.56-22.51-.42 0-.75.03-1.1.06-.08 0-.18.02-.26.03-7.62.58-14.76 2.85-21.29 6.78l-2.47-4.46c7.18-4.27 15.31-6.82 23.58-7.41.06 0 .12 0 .18-.02.36-.03.76-.06 1.18-.07 19.29-.94 37.75 8.63 48.1 24.96l.06.09z" fill="#fff"/><path d="m65.78 47.96-2.15 1.25-.07.04-2.23 1.29c-7.85-12.11-21.7-19.11-36.19-18.27-.42.02-.8.04-1.17.08-.07 0-.14 0-.21.03-6.12.55-11.91 2.47-17.2 5.7l-2.46-4.46c5.99-3.61 12.52-5.74 19.44-6.34.08 0 .14 0 .22-.02.38-.03.76-.06 1.14-.08 16.31-.94 32.06 7.06 40.89 20.78z" fill="#fff"/><path d="m58.43 52.21-2.26 1.31-.03.02-2.16 1.26c-6.36-9.5-17.37-14.88-28.79-14.04-.38.03-.72.06-1.07.09h-.1c-.08.02-.17.03-.25.04-4.56.54-8.89 2.04-12.85 4.48-.08.05-.17.1-.25.16l-2.47-4.47s.03-.03.05-.03c4.68-2.88 9.81-4.63 15.24-5.23l.12-.02c.05 0 .11 0 .16-.02.36-.03.72-.06 1.09-.08 13.28-.97 26.23 5.43 33.59 16.53z" fill="#fff"/></svg>