<svg viewBox="0 0 343.24 108.65" xmlns="http://www.w3.org/2000/svg"><g fill="#fff"><path d="m135.32 80.72h-10.1v-44.09h-16.34v-8.23h42.78v8.23h-16.34v44.08z"/><path d="m178.89 76.6c-1.23 1.07-2.55 1.91-3.95 2.5-1.41.6-2.74 1.06-4 1.39s-2.34.52-3.25.58-1.48.09-1.71.09c-5.97 0-10.4-1.44-13.26-4.34-2.87-2.89-4.3-7.02-4.3-12.38v-21.73h10.1v19.49c0 2.32.26 4.2.79 5.63s1.24 2.55 2.15 3.35 1.93 1.34 3.07 1.61 2.33.4 3.56.4 2.4-.27 3.69-.8c1.29-.54 2.46-1.27 3.51-2.19s1.92-2 2.59-3.22 1.01-2.49 1.01-3.8v-20.48h10.1v38h-9.75l-.35-4.11z"/><path d="m222.37 42.27c2.87 0 5.47.45 7.82 1.34 2.34.89 4.35 2.18 6.02 3.84 1.67 1.67 2.96 3.68 3.87 6.04s1.36 4.99 1.36 7.91c0 3.1-.53 5.87-1.58 8.32-1.05 2.44-2.45 4.52-4.17 6.22-1.73 1.7-3.7 3-5.93 3.89s-4.48 1.34-6.76 1.34c-.94 0-2.01-.03-3.21-.09s-2.46-.24-3.78-.54-2.62-.76-3.91-1.39-2.46-1.53-3.51-2.73l-.62 4.29h-9.49v-52.3h10.1v18.42c1.23-1.07 2.47-1.91 3.73-2.5s2.49-1.06 3.69-1.39 2.34-.52 3.43-.58c1.08-.06 2.06-.09 2.94-.09zm9.05 18.51c0-2.15-.38-3.87-1.14-5.19-.76-1.31-1.71-2.35-2.85-3.13-1.14-.77-2.39-1.3-3.73-1.56-1.35-.27-2.63-.4-3.86-.4s-2.61.22-3.95.67c-1.35.45-2.56 1.09-3.65 1.92-1.08.84-1.96 1.85-2.63 3.04s-1.01 2.56-1.01 4.11v3.4c0 1.37.32 2.64.97 3.8.64 1.16 1.52 2.18 2.64 3.04 1.11.87 2.4 1.54 3.86 2.01 1.46.48 3.02.72 4.66.72 1.29 0 2.58-.24 3.87-.72s2.43-1.21 3.43-2.19 1.81-2.22 2.46-3.71c.64-1.49.97-3.22.97-5.19v-.63z"/><path d="m249.25 28.32h10.1v10.1h-10.1zm0 14.4h10.1v38h-10.1v-38.01z"/><path d="m284.12 42.71h10.37v8.67h-10.37v29.33h-10.1v-29.33h-7.73v-8.67h7.73v-2.15c0-5.36.97-9.28 2.9-11.76 1.93-2.47 5.18-3.71 9.75-3.71.99 0 2.24.06 3.73.18s2.85.3 4.08.54v7.96c-.18-.06-.47-.1-.88-.13s-.83-.06-1.27-.09-.85-.04-1.23-.04h-.75c-2.11 0-3.68.43-4.7 1.3s-1.54 2.46-1.54 4.78v3.13z"/><path d="m301.51 89.75c1.17.48 2.18.77 3.03.9.85.12 1.62.18 2.33.18 2.46 0 4.13-.31 5.01-.94s1.32-1.77 1.32-3.44c0-.42-.07-.95-.22-1.61s-.31-1.31-.48-1.97c-.18-.66-.35-1.25-.53-1.79s-.29-.9-.35-1.07l-13.35-37.29h10.98l11.51 33.8 11.42-33.8h11.07l-14.67 40.59c-1.41 3.87-2.96 6.85-4.66 8.94s-3.38 3.62-5.05 4.61c-1.67.98-3.24 1.55-4.7 1.7s-2.69.22-3.69.22c-1.82 0-3.31-.06-4.48-.18s-2.09-.27-2.77-.45c-.67-.18-1.24-.39-1.71-.63v-7.78z"/></g><path d="m108.63 61.85c-10.77-2.67-25.31-7.46-40.99-16.43-16.24-9.29-28.04-19.81-35.9-27.96v88.78c8.12-8.15 19.95-18.36 35.9-27.51 15.58-8.94 30.02-13.95 40.99-16.87z" fill="none" stroke="#fff" stroke-linecap="round" stroke-linejoin="round" stroke-width="4.83"/><path d="m2.42 52.1c7.8-4.9 17.03-7.74 26.91-7.74.8 0 1.62.02 2.42.05 19.59.93 36.3 13 43.94 29.98" fill="none" stroke="#fff" stroke-linecap="round" stroke-linejoin="round" stroke-width="4.83"/><path d="m7.55 60.26c6.32-3.95 13.78-6.23 21.77-6.23.82 0 1.62.03 2.42.08 15.95.93 29.44 10.92 35.43 24.9" fill="none" stroke="#fff" stroke-linecap="round" stroke-linejoin="round" stroke-width="4.83"/><path d="m12.72 68.44c4.81-3.01 10.51-4.75 16.61-4.75.82 0 1.62.04 2.42.11 12.44.95 22.87 9.13 27.08 20.35" fill="none" stroke="#fff" stroke-linecap="round" stroke-linejoin="round" stroke-width="4.83"/><path d="m64.46 20.55c3.46-1 6.61-1.92 9.76-2.84.56-.16 1.11-.38 1.67-.54 3.1-.87 5.04-2.89 5.95-5.96 1.08-3.63 2.18-7.25 3.38-11.22.83 2.81 1.55 5.32 2.32 7.81.5 1.61 1.04 3.2 1.62 4.78.72 1.96 2.08 3.39 4.04 4.04 3.6 1.2 7.24 2.25 10.87 3.37.52.16 1.04.32 1.91.59-3.08.89-5.84 1.67-8.58 2.49-1.42.43-2.84.88-4.22 1.43-1.92.76-3.36 2.08-4.01 4.07-1.21 3.68-2.34 7.38-3.5 11.07-.13.4-.23.8-.45 1.54-.62-2.11-1.15-3.93-1.7-5.75-.65-2.13-1.3-4.27-2.01-6.38-.82-2.44-2.5-4.06-4.96-4.82-3.58-1.11-7.18-2.19-10.77-3.28-.34-.1-.67-.21-1.31-.41z" fill="#3e4da0"/></svg>